<mxfile host="Electron" modified="2024-05-18T21:08:36.850Z" agent="Mozilla/5.0 (Windows NT 10.0; Win64; x64) AppleWebKit/537.36 (KHTML, like Gecko) draw.io/24.2.5 Chrome/120.0.6099.109 Electron/28.1.0 Safari/537.36" etag="mHUT-LqL4oI0x33DLH88" version="24.2.5" type="device">
  <diagram name="ページ1" id="LE8fIzdrHe0wcv1LTvfw">
    <mxGraphModel dx="2833" dy="1673" grid="1" gridSize="10" guides="1" tooltips="1" connect="1" arrows="1" fold="1" page="1" pageScale="1" pageWidth="1600" pageHeight="1200" math="0" shadow="0">
      <root>
        <mxCell id="0" />
        <mxCell id="cFaB45KztUIKXS-_cTrr-4" value="背景" style="locked=1;" parent="0" visible="0" />
        <mxCell id="cFaB45KztUIKXS-_cTrr-5" value="" style="rounded=0;whiteSpace=wrap;html=1;strokeWidth=3;" parent="cFaB45KztUIKXS-_cTrr-4" vertex="1">
          <mxGeometry x="1" y="1" width="1595" height="1180" as="geometry" />
        </mxCell>
        <mxCell id="cFaB45KztUIKXS-_cTrr-6" value="" style="rounded=0;whiteSpace=wrap;html=1;fillColor=#B3B3B3;fontColor=#333333;strokeColor=#666666;" parent="cFaB45KztUIKXS-_cTrr-4" vertex="1">
          <mxGeometry width="1595" height="60" as="geometry" />
        </mxCell>
        <mxCell id="cFaB45KztUIKXS-_cTrr-7" value="&lt;font style=&quot;font-size: 48px;&quot;&gt;×&lt;/font&gt;" style="rounded=0;whiteSpace=wrap;html=1;" parent="cFaB45KztUIKXS-_cTrr-4" vertex="1">
          <mxGeometry x="1550" y="10" width="40" height="40" as="geometry" />
        </mxCell>
        <mxCell id="cFaB45KztUIKXS-_cTrr-8" value="" style="rounded=0;whiteSpace=wrap;html=1;" parent="cFaB45KztUIKXS-_cTrr-4" vertex="1">
          <mxGeometry x="830" y="670" width="120" height="60" as="geometry" />
        </mxCell>
        <mxCell id="cFaB45KztUIKXS-_cTrr-9" value="ウインドウ" style="locked=1;" parent="0" />
        <mxCell id="cFaB45KztUIKXS-_cTrr-10" value="" style="rounded=0;whiteSpace=wrap;html=1;strokeWidth=3;" parent="cFaB45KztUIKXS-_cTrr-9" vertex="1">
          <mxGeometry x="1" y="1" width="1589" height="3549" as="geometry" />
        </mxCell>
        <mxCell id="cFaB45KztUIKXS-_cTrr-11" value="" style="rounded=0;whiteSpace=wrap;html=1;fillColor=#B3B3B3;fontColor=#333333;strokeColor=#666666;" parent="cFaB45KztUIKXS-_cTrr-9" vertex="1">
          <mxGeometry width="1595" height="60" as="geometry" />
        </mxCell>
        <mxCell id="cFaB45KztUIKXS-_cTrr-12" value="&lt;font style=&quot;font-size: 48px;&quot;&gt;×&lt;/font&gt;" style="rounded=0;whiteSpace=wrap;html=1;" parent="cFaB45KztUIKXS-_cTrr-9" vertex="1">
          <mxGeometry x="1550" y="10" width="40" height="40" as="geometry" />
        </mxCell>
        <mxCell id="cFaB45KztUIKXS-_cTrr-14" value="名称未設定レイヤ" style="" parent="0" />
        <mxCell id="5l2hKBXCzOEWmYN1dR5e-1" value="&lt;span style=&quot;font-size: 30px;&quot;&gt;保存&lt;/span&gt;" style="rounded=1;whiteSpace=wrap;html=1;" parent="cFaB45KztUIKXS-_cTrr-14" vertex="1">
          <mxGeometry x="1343" y="3449" width="210" height="60" as="geometry" />
        </mxCell>
        <mxCell id="5l2hKBXCzOEWmYN1dR5e-2" value="&lt;span style=&quot;font-size: 30px;&quot;&gt;閉じる&lt;/span&gt;" style="rounded=1;whiteSpace=wrap;html=1;" parent="cFaB45KztUIKXS-_cTrr-14" vertex="1">
          <mxGeometry x="1093" y="3449" width="210" height="60" as="geometry" />
        </mxCell>
        <mxCell id="MmM4sdzbBg2WOu6LbQjL-0" value="&lt;div&gt;&lt;span style=&quot;font-size: 30px;&quot;&gt;&lt;br&gt;&lt;/span&gt;&lt;/div&gt;&lt;span style=&quot;font-size: 30px;&quot;&gt;意見付記集約&lt;/span&gt;" style="rounded=0;whiteSpace=wrap;html=1;align=left;dashed=1;dashPattern=8 8;verticalAlign=bottom;" parent="cFaB45KztUIKXS-_cTrr-14" vertex="1">
          <mxGeometry x="27" y="191" width="310" height="46" as="geometry" />
        </mxCell>
        <mxCell id="NQJxZghHYys1g4WI1TBl-5" value="" style="rounded=1;whiteSpace=wrap;html=1;" parent="cFaB45KztUIKXS-_cTrr-14" vertex="1">
          <mxGeometry x="47" y="300" width="1043" height="370" as="geometry" />
        </mxCell>
        <mxCell id="NQJxZghHYys1g4WI1TBl-1" value="&lt;font style=&quot;font-size: 30px;&quot;&gt;意見付記&lt;/font&gt;&lt;span style=&quot;font-size: 30px;&quot;&gt;&lt;br&gt;&lt;/span&gt;" style="rounded=0;whiteSpace=wrap;html=1;align=left;verticalAlign=top;" parent="cFaB45KztUIKXS-_cTrr-14" vertex="1">
          <mxGeometry x="110" y="468" width="920" height="175" as="geometry" />
        </mxCell>
        <mxCell id="NQJxZghHYys1g4WI1TBl-2" value="&lt;span style=&quot;font-size: 30px;&quot;&gt;政治家　太郎&lt;/span&gt;" style="rounded=0;whiteSpace=wrap;html=1;align=right;dashed=1;dashPattern=8 8;verticalAlign=bottom;" parent="cFaB45KztUIKXS-_cTrr-14" vertex="1">
          <mxGeometry x="57" y="336" width="310" height="46" as="geometry" />
        </mxCell>
        <mxCell id="NQJxZghHYys1g4WI1TBl-3" value="&lt;span style=&quot;font-size: 30px;&quot;&gt;さん&lt;/span&gt;" style="rounded=0;whiteSpace=wrap;html=1;align=left;dashed=1;dashPattern=8 8;verticalAlign=bottom;" parent="cFaB45KztUIKXS-_cTrr-14" vertex="1">
          <mxGeometry x="377" y="336" width="133" height="46" as="geometry" />
        </mxCell>
        <mxCell id="NQJxZghHYys1g4WI1TBl-4" value="&lt;span style=&quot;font-size: 30px;&quot;&gt;代表者&lt;/span&gt;" style="rounded=0;whiteSpace=wrap;html=1;align=right;dashed=1;dashPattern=8 8;verticalAlign=bottom;" parent="cFaB45KztUIKXS-_cTrr-14" vertex="1">
          <mxGeometry x="57" y="396" width="310" height="46" as="geometry" />
        </mxCell>
        <mxCell id="NQJxZghHYys1g4WI1TBl-13" value="" style="rounded=1;whiteSpace=wrap;html=1;" parent="cFaB45KztUIKXS-_cTrr-14" vertex="1">
          <mxGeometry x="507" y="1240" width="1043" height="470" as="geometry" />
        </mxCell>
        <mxCell id="NQJxZghHYys1g4WI1TBl-15" value="&lt;font style=&quot;font-size: 30px;&quot;&gt;意見付記&lt;/font&gt;&lt;span style=&quot;font-size: 30px;&quot;&gt;&lt;br&gt;&lt;/span&gt;" style="rounded=0;whiteSpace=wrap;html=1;align=left;verticalAlign=top;" parent="cFaB45KztUIKXS-_cTrr-14" vertex="1">
          <mxGeometry x="570" y="1478" width="920" height="175" as="geometry" />
        </mxCell>
        <mxCell id="NQJxZghHYys1g4WI1TBl-16" value="&lt;span style=&quot;font-size: 30px;&quot;&gt;監査人　次郎&lt;/span&gt;" style="rounded=0;whiteSpace=wrap;html=1;align=right;dashed=1;dashPattern=8 8;verticalAlign=bottom;" parent="cFaB45KztUIKXS-_cTrr-14" vertex="1">
          <mxGeometry x="517" y="1276" width="310" height="46" as="geometry" />
        </mxCell>
        <mxCell id="NQJxZghHYys1g4WI1TBl-17" value="&lt;span style=&quot;font-size: 30px;&quot;&gt;さん&lt;/span&gt;" style="rounded=0;whiteSpace=wrap;html=1;align=left;dashed=1;dashPattern=8 8;verticalAlign=bottom;" parent="cFaB45KztUIKXS-_cTrr-14" vertex="1">
          <mxGeometry x="853.5" y="1280" width="133" height="46" as="geometry" />
        </mxCell>
        <mxCell id="NQJxZghHYys1g4WI1TBl-18" value="&lt;span style=&quot;font-size: 30px;&quot;&gt;監査意見2&lt;/span&gt;" style="rounded=0;whiteSpace=wrap;html=1;align=right;dashed=1;dashPattern=8 8;verticalAlign=bottom;" parent="cFaB45KztUIKXS-_cTrr-14" vertex="1">
          <mxGeometry x="517" y="1336" width="310" height="46" as="geometry" />
        </mxCell>
        <mxCell id="NQJxZghHYys1g4WI1TBl-19" value="&lt;span style=&quot;font-size: 30px;&quot;&gt;会計責任者　正夫さんの意見を支持します&lt;/span&gt;" style="rounded=0;whiteSpace=wrap;html=1;align=left;dashed=1;dashPattern=8 8;verticalAlign=bottom;" parent="cFaB45KztUIKXS-_cTrr-14" vertex="1">
          <mxGeometry x="573.5" y="1400" width="916.5" height="46" as="geometry" />
        </mxCell>
        <mxCell id="NQJxZghHYys1g4WI1TBl-20" value="" style="rounded=1;whiteSpace=wrap;html=1;" parent="cFaB45KztUIKXS-_cTrr-14" vertex="1">
          <mxGeometry x="47" y="1760" width="1043" height="370" as="geometry" />
        </mxCell>
        <mxCell id="NQJxZghHYys1g4WI1TBl-22" value="&lt;font style=&quot;font-size: 30px;&quot;&gt;意見付記&lt;/font&gt;&lt;span style=&quot;font-size: 30px;&quot;&gt;&lt;br&gt;&lt;/span&gt;" style="rounded=0;whiteSpace=wrap;html=1;align=left;verticalAlign=top;" parent="cFaB45KztUIKXS-_cTrr-14" vertex="1">
          <mxGeometry x="110" y="1928" width="920" height="175" as="geometry" />
        </mxCell>
        <mxCell id="NQJxZghHYys1g4WI1TBl-23" value="&lt;span style=&quot;font-size: 30px;&quot;&gt;会計責任者　正夫&lt;/span&gt;" style="rounded=0;whiteSpace=wrap;html=1;align=right;dashed=1;dashPattern=8 8;verticalAlign=bottom;" parent="cFaB45KztUIKXS-_cTrr-14" vertex="1">
          <mxGeometry x="57" y="1796" width="310" height="46" as="geometry" />
        </mxCell>
        <mxCell id="NQJxZghHYys1g4WI1TBl-24" value="&lt;span style=&quot;font-size: 30px;&quot;&gt;さん&lt;/span&gt;" style="rounded=0;whiteSpace=wrap;html=1;align=left;dashed=1;dashPattern=8 8;verticalAlign=bottom;" parent="cFaB45KztUIKXS-_cTrr-14" vertex="1">
          <mxGeometry x="377" y="1796" width="133" height="46" as="geometry" />
        </mxCell>
        <mxCell id="NQJxZghHYys1g4WI1TBl-25" value="&lt;span style=&quot;font-size: 30px;&quot;&gt;会計責任者&lt;/span&gt;" style="rounded=0;whiteSpace=wrap;html=1;align=right;dashed=1;dashPattern=8 8;verticalAlign=bottom;" parent="cFaB45KztUIKXS-_cTrr-14" vertex="1">
          <mxGeometry x="57" y="1856" width="310" height="46" as="geometry" />
        </mxCell>
        <mxCell id="NQJxZghHYys1g4WI1TBl-26" value="" style="rounded=1;whiteSpace=wrap;html=1;" parent="cFaB45KztUIKXS-_cTrr-14" vertex="1">
          <mxGeometry x="517" y="730" width="1043" height="470" as="geometry" />
        </mxCell>
        <mxCell id="NQJxZghHYys1g4WI1TBl-28" value="&lt;font style=&quot;font-size: 30px;&quot;&gt;意見付記&lt;/font&gt;&lt;span style=&quot;font-size: 30px;&quot;&gt;&lt;br&gt;&lt;/span&gt;" style="rounded=0;whiteSpace=wrap;html=1;align=left;verticalAlign=top;" parent="cFaB45KztUIKXS-_cTrr-14" vertex="1">
          <mxGeometry x="580" y="968" width="920" height="175" as="geometry" />
        </mxCell>
        <mxCell id="NQJxZghHYys1g4WI1TBl-29" value="&lt;span style=&quot;font-size: 30px;&quot;&gt;監査人　一郎&lt;/span&gt;" style="rounded=0;whiteSpace=wrap;html=1;align=right;dashed=1;dashPattern=8 8;verticalAlign=bottom;" parent="cFaB45KztUIKXS-_cTrr-14" vertex="1">
          <mxGeometry x="527" y="766" width="310" height="46" as="geometry" />
        </mxCell>
        <mxCell id="NQJxZghHYys1g4WI1TBl-30" value="&lt;span style=&quot;font-size: 30px;&quot;&gt;さん&lt;/span&gt;" style="rounded=0;whiteSpace=wrap;html=1;align=left;dashed=1;dashPattern=8 8;verticalAlign=bottom;" parent="cFaB45KztUIKXS-_cTrr-14" vertex="1">
          <mxGeometry x="863.5" y="770" width="133" height="46" as="geometry" />
        </mxCell>
        <mxCell id="NQJxZghHYys1g4WI1TBl-31" value="&lt;span style=&quot;font-size: 30px;&quot;&gt;監査意見1&lt;/span&gt;" style="rounded=0;whiteSpace=wrap;html=1;align=right;dashed=1;dashPattern=8 8;verticalAlign=bottom;" parent="cFaB45KztUIKXS-_cTrr-14" vertex="1">
          <mxGeometry x="527" y="826" width="310" height="46" as="geometry" />
        </mxCell>
        <mxCell id="NQJxZghHYys1g4WI1TBl-32" value="&lt;span style=&quot;font-size: 30px;&quot;&gt;独自の仕分けを提示します&lt;/span&gt;" style="rounded=0;whiteSpace=wrap;html=1;align=left;dashed=1;dashPattern=8 8;verticalAlign=bottom;" parent="cFaB45KztUIKXS-_cTrr-14" vertex="1">
          <mxGeometry x="583.5" y="890" width="916.5" height="46" as="geometry" />
        </mxCell>
        <mxCell id="DXEXjRhc03ldfBuddgmn-39" value="&lt;font style=&quot;font-size: 84px;&quot;&gt;○&lt;/font&gt;" style="text;html=1;strokeColor=none;fillColor=none;align=center;verticalAlign=middle;whiteSpace=wrap;rounded=0;fontSize=60;" parent="cFaB45KztUIKXS-_cTrr-14" vertex="1">
          <mxGeometry x="820" y="337" width="60" height="30" as="geometry" />
        </mxCell>
        <mxCell id="DXEXjRhc03ldfBuddgmn-40" value="&lt;font style=&quot;font-size: 48px;&quot;&gt;●&lt;/font&gt;" style="text;html=1;strokeColor=none;fillColor=none;align=center;verticalAlign=middle;whiteSpace=wrap;rounded=0;fontSize=48;" parent="cFaB45KztUIKXS-_cTrr-14" vertex="1">
          <mxGeometry x="820" y="339" width="60" height="30" as="geometry" />
        </mxCell>
        <mxCell id="DXEXjRhc03ldfBuddgmn-41" value="&lt;font style=&quot;font-size: 30px;&quot;&gt;データ表示&lt;/font&gt;" style="text;html=1;strokeColor=none;fillColor=none;align=left;verticalAlign=middle;whiteSpace=wrap;rounded=0;" parent="cFaB45KztUIKXS-_cTrr-14" vertex="1">
          <mxGeometry x="875" y="326" width="165" height="60" as="geometry" />
        </mxCell>
        <mxCell id="DXEXjRhc03ldfBuddgmn-42" value="&lt;font style=&quot;font-size: 84px;&quot;&gt;○&lt;/font&gt;" style="text;html=1;strokeColor=none;fillColor=none;align=center;verticalAlign=middle;whiteSpace=wrap;rounded=0;fontSize=60;" parent="cFaB45KztUIKXS-_cTrr-14" vertex="1">
          <mxGeometry x="1260" y="777" width="60" height="30" as="geometry" />
        </mxCell>
        <mxCell id="DXEXjRhc03ldfBuddgmn-43" value="&lt;font style=&quot;font-size: 48px;&quot;&gt;●&lt;/font&gt;" style="text;html=1;strokeColor=none;fillColor=none;align=center;verticalAlign=middle;whiteSpace=wrap;rounded=0;fontSize=48;" parent="cFaB45KztUIKXS-_cTrr-14" vertex="1">
          <mxGeometry x="1260" y="779" width="60" height="30" as="geometry" />
        </mxCell>
        <mxCell id="DXEXjRhc03ldfBuddgmn-44" value="&lt;font style=&quot;font-size: 30px;&quot;&gt;データ表示&lt;/font&gt;" style="text;html=1;strokeColor=none;fillColor=none;align=left;verticalAlign=middle;whiteSpace=wrap;rounded=0;" parent="cFaB45KztUIKXS-_cTrr-14" vertex="1">
          <mxGeometry x="1315" y="766" width="165" height="60" as="geometry" />
        </mxCell>
        <mxCell id="DXEXjRhc03ldfBuddgmn-45" value="&lt;font style=&quot;font-size: 84px;&quot;&gt;○&lt;/font&gt;" style="text;html=1;strokeColor=none;fillColor=none;align=center;verticalAlign=middle;whiteSpace=wrap;rounded=0;fontSize=60;" parent="cFaB45KztUIKXS-_cTrr-14" vertex="1">
          <mxGeometry x="1260" y="1277" width="60" height="30" as="geometry" />
        </mxCell>
        <mxCell id="DXEXjRhc03ldfBuddgmn-46" value="&lt;font style=&quot;font-size: 48px;&quot;&gt;●&lt;/font&gt;" style="text;html=1;strokeColor=none;fillColor=none;align=center;verticalAlign=middle;whiteSpace=wrap;rounded=0;fontSize=48;" parent="cFaB45KztUIKXS-_cTrr-14" vertex="1">
          <mxGeometry x="1260" y="1279" width="60" height="30" as="geometry" />
        </mxCell>
        <mxCell id="DXEXjRhc03ldfBuddgmn-47" value="&lt;font style=&quot;font-size: 30px;&quot;&gt;データ表示&lt;/font&gt;" style="text;html=1;strokeColor=none;fillColor=none;align=left;verticalAlign=middle;whiteSpace=wrap;rounded=0;" parent="cFaB45KztUIKXS-_cTrr-14" vertex="1">
          <mxGeometry x="1315" y="1266" width="165" height="60" as="geometry" />
        </mxCell>
        <mxCell id="DXEXjRhc03ldfBuddgmn-48" value="&lt;font style=&quot;font-size: 84px;&quot;&gt;○&lt;/font&gt;" style="text;html=1;strokeColor=none;fillColor=none;align=center;verticalAlign=middle;whiteSpace=wrap;rounded=0;fontSize=60;" parent="cFaB45KztUIKXS-_cTrr-14" vertex="1">
          <mxGeometry x="810" y="1787" width="60" height="30" as="geometry" />
        </mxCell>
        <mxCell id="DXEXjRhc03ldfBuddgmn-49" value="&lt;font style=&quot;font-size: 48px;&quot;&gt;●&lt;/font&gt;" style="text;html=1;strokeColor=none;fillColor=none;align=center;verticalAlign=middle;whiteSpace=wrap;rounded=0;fontSize=48;" parent="cFaB45KztUIKXS-_cTrr-14" vertex="1">
          <mxGeometry x="810" y="1789" width="60" height="30" as="geometry" />
        </mxCell>
        <mxCell id="DXEXjRhc03ldfBuddgmn-50" value="&lt;font style=&quot;font-size: 30px;&quot;&gt;データ表示&lt;/font&gt;" style="text;html=1;strokeColor=none;fillColor=none;align=left;verticalAlign=middle;whiteSpace=wrap;rounded=0;" parent="cFaB45KztUIKXS-_cTrr-14" vertex="1">
          <mxGeometry x="865" y="1776" width="165" height="60" as="geometry" />
        </mxCell>
        <mxCell id="865_u717xGQPADI79aA--0" value="&lt;font style=&quot;font-size: 30px;&quot;&gt;表示中の内容&lt;/font&gt;" style="rounded=0;whiteSpace=wrap;html=1;align=left;dashed=1;dashPattern=8 8;verticalAlign=bottom;" parent="cFaB45KztUIKXS-_cTrr-14" vertex="1">
          <mxGeometry x="373" y="2220" width="230" height="46" as="geometry" />
        </mxCell>
        <mxCell id="865_u717xGQPADI79aA--1" value="&lt;div style=&quot;&quot;&gt;&lt;span style=&quot;text-align: center;&quot;&gt;&lt;font style=&quot;font-size: 30px;&quot;&gt;2022-03-06 12:34:56&lt;/font&gt;&lt;/span&gt;&lt;br&gt;&lt;/div&gt;" style="rounded=0;whiteSpace=wrap;html=1;align=left;fillColor=#CCCCCC;" parent="cFaB45KztUIKXS-_cTrr-14" vertex="1">
          <mxGeometry x="627" y="2220" width="293" height="41" as="geometry" />
        </mxCell>
        <mxCell id="865_u717xGQPADI79aA--2" value="&lt;div style=&quot;&quot;&gt;&lt;span style=&quot;background-color: initial;&quot;&gt;&lt;font style=&quot;font-size: 30px;&quot;&gt;▼会計責任者&lt;/font&gt;&lt;/span&gt;&lt;/div&gt;" style="rounded=0;whiteSpace=wrap;html=1;align=left;fillColor=#CCCCCC;" parent="cFaB45KztUIKXS-_cTrr-14" vertex="1">
          <mxGeometry x="957" y="2222" width="220" height="41" as="geometry" />
        </mxCell>
        <mxCell id="865_u717xGQPADI79aA--3" value="&lt;div style=&quot;&quot;&gt;&lt;span style=&quot;background-color: initial;&quot;&gt;&lt;font style=&quot;font-size: 30px;&quot;&gt;123,456&lt;/font&gt;&lt;/span&gt;&lt;/div&gt;" style="rounded=0;whiteSpace=wrap;html=1;align=right;fillColor=#CCCCCC;" parent="cFaB45KztUIKXS-_cTrr-14" vertex="1">
          <mxGeometry x="371" y="2489" width="220" height="48" as="geometry" />
        </mxCell>
        <mxCell id="865_u717xGQPADI79aA--4" value="&lt;div style=&quot;&quot;&gt;&lt;span style=&quot;background-color: initial;&quot;&gt;&lt;font style=&quot;font-size: 30px;&quot;&gt;*金額&lt;/font&gt;&lt;/span&gt;&lt;/div&gt;" style="rounded=0;whiteSpace=wrap;html=1;align=right;dashed=1;dashPattern=8 8;verticalAlign=bottom;" parent="cFaB45KztUIKXS-_cTrr-14" vertex="1">
          <mxGeometry x="70" y="2486" width="230" height="48" as="geometry" />
        </mxCell>
        <mxCell id="865_u717xGQPADI79aA--5" value="&lt;div style=&quot;&quot;&gt;&lt;font style=&quot;font-size: 30px;&quot;&gt;*収支報告&lt;/font&gt;&lt;/div&gt;" style="rounded=0;whiteSpace=wrap;html=1;align=right;dashed=1;dashPattern=8 8;verticalAlign=bottom;" parent="cFaB45KztUIKXS-_cTrr-14" vertex="1">
          <mxGeometry x="73" y="2350" width="230" height="46" as="geometry" />
        </mxCell>
        <mxCell id="865_u717xGQPADI79aA--6" value="&lt;div style=&quot;&quot;&gt;&lt;span style=&quot;background-color: initial;&quot;&gt;&lt;font style=&quot;font-size: 30px;&quot;&gt;スーパー地元&lt;/font&gt;&lt;/span&gt;&lt;/div&gt;" style="rounded=0;whiteSpace=wrap;html=1;align=left;fillColor=#CCCCCC;" parent="cFaB45KztUIKXS-_cTrr-14" vertex="1">
          <mxGeometry x="368" y="2827" width="220" height="48" as="geometry" />
        </mxCell>
        <mxCell id="865_u717xGQPADI79aA--7" value="&lt;div style=&quot;font-size: 30px;&quot;&gt;&lt;span style=&quot;background-color: initial;&quot;&gt;*&lt;/span&gt;支出を受けた&lt;/div&gt;&lt;div style=&quot;font-size: 30px;&quot;&gt;&lt;span style=&quot;background-color: initial;&quot;&gt;もの氏名&lt;/span&gt;&lt;/div&gt;" style="rounded=0;whiteSpace=wrap;html=1;align=right;dashed=1;dashPattern=8 8;verticalAlign=top;" parent="cFaB45KztUIKXS-_cTrr-14" vertex="1">
          <mxGeometry x="70" y="2813" width="230" height="87" as="geometry" />
        </mxCell>
        <mxCell id="865_u717xGQPADI79aA--8" value="&lt;font style=&quot;font-size: 30px;&quot;&gt;*書証タイプ&lt;/font&gt;" style="rounded=0;whiteSpace=wrap;html=1;align=right;dashed=1;dashPattern=8 8;verticalAlign=bottom;" parent="cFaB45KztUIKXS-_cTrr-14" vertex="1">
          <mxGeometry x="71" y="2290" width="230" height="46" as="geometry" />
        </mxCell>
        <mxCell id="865_u717xGQPADI79aA--9" value="&lt;div style=&quot;&quot;&gt;&lt;font style=&quot;font-size: 30px;&quot;&gt;▼ 口座振込&lt;/font&gt;&lt;/div&gt;" style="rounded=0;whiteSpace=wrap;html=1;align=left;fillColor=#CCCCCC;" parent="cFaB45KztUIKXS-_cTrr-14" vertex="1">
          <mxGeometry x="376" y="2293" width="220" height="48" as="geometry" />
        </mxCell>
        <mxCell id="865_u717xGQPADI79aA--10" value="&lt;div style=&quot;&quot;&gt;&lt;div style=&quot;font-family: &amp;quot;MS GothIc&amp;quot;, Consolas, &amp;quot;Courier New&amp;quot;, monospace, Consolas, &amp;quot;Courier New&amp;quot;, monospace; line-height: 19px;&quot;&gt;&lt;font style=&quot;font-size: 30px; background-color: rgb(204, 204, 204);&quot;&gt;組織活動費&lt;/font&gt;&lt;/div&gt;&lt;/div&gt;" style="rounded=0;whiteSpace=wrap;html=1;align=left;fillColor=#CCCCCC;" parent="cFaB45KztUIKXS-_cTrr-14" vertex="1">
          <mxGeometry x="369" y="2685" width="220" height="48" as="geometry" />
        </mxCell>
        <mxCell id="865_u717xGQPADI79aA--11" value="&lt;div style=&quot;font-size: 30px;&quot;&gt;&lt;span style=&quot;background-color: initial;&quot;&gt;&lt;font style=&quot;font-size: 30px;&quot;&gt;*&lt;/font&gt;&lt;/span&gt;支出の目的&lt;/div&gt;" style="rounded=0;whiteSpace=wrap;html=1;align=right;dashed=1;dashPattern=8 8;verticalAlign=bottom;" parent="cFaB45KztUIKXS-_cTrr-14" vertex="1">
          <mxGeometry x="70" y="2686" width="230" height="48" as="geometry" />
        </mxCell>
        <mxCell id="865_u717xGQPADI79aA--12" value="&lt;div style=&quot;&quot;&gt;&lt;span style=&quot;background-color: initial;&quot;&gt;&lt;font style=&quot;font-size: 30px;&quot;&gt;東京都千代田区霞が関&lt;/font&gt;&lt;/span&gt;&lt;/div&gt;" style="rounded=0;whiteSpace=wrap;html=1;align=left;verticalAlign=top;fillColor=#CCCCCC;" parent="cFaB45KztUIKXS-_cTrr-14" vertex="1">
          <mxGeometry x="367" y="2897" width="343" height="144" as="geometry" />
        </mxCell>
        <mxCell id="865_u717xGQPADI79aA--13" value="&lt;div style=&quot;&quot;&gt;&lt;font style=&quot;font-size: 30px;&quot;&gt;*&lt;/font&gt;&lt;font style=&quot;font-size: 30px;&quot;&gt;支出を受けた&lt;/font&gt;&lt;/div&gt;&lt;div style=&quot;&quot;&gt;&lt;font style=&quot;font-size: 30px;&quot;&gt;ものの住所&lt;/font&gt;&lt;/div&gt;" style="rounded=0;whiteSpace=wrap;html=1;align=right;dashed=1;dashPattern=8 8;verticalAlign=top;" parent="cFaB45KztUIKXS-_cTrr-14" vertex="1">
          <mxGeometry x="70" y="2894" width="230" height="114" as="geometry" />
        </mxCell>
        <mxCell id="865_u717xGQPADI79aA--14" value="&lt;font style=&quot;font-size: 30px;&quot;&gt;*仕訳項目&lt;/font&gt;" style="rounded=0;whiteSpace=wrap;html=1;align=right;dashed=1;dashPattern=8 8;verticalAlign=bottom;" parent="cFaB45KztUIKXS-_cTrr-14" vertex="1">
          <mxGeometry x="71" y="2414" width="230" height="46" as="geometry" />
        </mxCell>
        <mxCell id="865_u717xGQPADI79aA--15" value="&lt;div style=&quot;&quot;&gt;&lt;font style=&quot;font-size: 30px;&quot;&gt;▼ (14)&lt;/font&gt;&lt;font style=&quot;font-size: 30px;&quot;&gt;経常経費の内訳&lt;/font&gt;&lt;/div&gt;" style="rounded=0;whiteSpace=wrap;html=1;align=left;fillColor=#CCCCCC;" parent="cFaB45KztUIKXS-_cTrr-14" vertex="1">
          <mxGeometry x="373" y="2420" width="347" height="48" as="geometry" />
        </mxCell>
        <mxCell id="865_u717xGQPADI79aA--16" value="&lt;div style=&quot;&quot;&gt;&lt;font style=&quot;font-size: 30px;&quot;&gt;▼ 3.備品・消耗品費&lt;/font&gt;&lt;/div&gt;" style="rounded=0;whiteSpace=wrap;html=1;align=left;fillColor=#CCCCCC;" parent="cFaB45KztUIKXS-_cTrr-14" vertex="1">
          <mxGeometry x="768" y="2420" width="346" height="48" as="geometry" />
        </mxCell>
        <mxCell id="865_u717xGQPADI79aA--17" value="&lt;div style=&quot;&quot;&gt;&lt;span style=&quot;background-color: initial;&quot;&gt;&lt;font style=&quot;font-size: 30px;&quot;&gt;2022-12-01&lt;/font&gt;&lt;/span&gt;&lt;/div&gt;" style="rounded=0;whiteSpace=wrap;html=1;align=left;fillColor=#CCCCCC;" parent="cFaB45KztUIKXS-_cTrr-14" vertex="1">
          <mxGeometry x="371" y="2559" width="220" height="41" as="geometry" />
        </mxCell>
        <mxCell id="865_u717xGQPADI79aA--18" value="&lt;div style=&quot;&quot;&gt;&lt;font style=&quot;font-size: 30px;&quot;&gt;*(発生)年月日&lt;/font&gt;&lt;/div&gt;" style="rounded=0;whiteSpace=wrap;html=1;align=right;dashed=1;dashPattern=8 8;verticalAlign=bottom;" parent="cFaB45KztUIKXS-_cTrr-14" vertex="1">
          <mxGeometry x="68" y="2556" width="230" height="48" as="geometry" />
        </mxCell>
        <mxCell id="865_u717xGQPADI79aA--19" value="&lt;div style=&quot;&quot;&gt;&lt;br&gt;&lt;/div&gt;" style="rounded=0;whiteSpace=wrap;html=1;align=left;verticalAlign=top;fillColor=#CCCCCC;" parent="cFaB45KztUIKXS-_cTrr-14" vertex="1">
          <mxGeometry x="370" y="3076" width="340" height="48" as="geometry" />
        </mxCell>
        <mxCell id="865_u717xGQPADI79aA--20" value="&lt;font style=&quot;font-size: 30px;&quot;&gt;*備考&lt;/font&gt;" style="rounded=0;whiteSpace=wrap;html=1;align=right;dashed=1;dashPattern=8 8;verticalAlign=bottom;" parent="cFaB45KztUIKXS-_cTrr-14" vertex="1">
          <mxGeometry x="70" y="3073" width="230" height="48" as="geometry" />
        </mxCell>
        <mxCell id="865_u717xGQPADI79aA--21" value="&lt;font style=&quot;font-size: 30px;&quot;&gt;☑交付金に係る支出&lt;/font&gt;" style="text;html=1;strokeColor=none;fillColor=#CCCCCC;align=left;verticalAlign=middle;whiteSpace=wrap;rounded=0;" parent="cFaB45KztUIKXS-_cTrr-14" vertex="1">
          <mxGeometry x="738" y="3073" width="372" height="60" as="geometry" />
        </mxCell>
        <mxCell id="865_u717xGQPADI79aA--22" value="&lt;font style=&quot;font-size: 30px;&quot;&gt;*&lt;/font&gt;&lt;font style=&quot;font-size: 30px;&quot;&gt;領収書を徴し&lt;br&gt;難たかったもの&lt;/font&gt;" style="rounded=0;whiteSpace=wrap;html=1;align=right;dashed=1;dashPattern=8 8;verticalAlign=bottom;" parent="cFaB45KztUIKXS-_cTrr-14" vertex="1">
          <mxGeometry x="30" y="3143" width="271" height="70" as="geometry" />
        </mxCell>
        <mxCell id="865_u717xGQPADI79aA--23" value="&lt;span style=&quot;font-size: 30px;&quot;&gt;××信用金庫&lt;/span&gt;" style="rounded=0;whiteSpace=wrap;html=1;align=left;fillColor=#CCCCCC;" parent="cFaB45KztUIKXS-_cTrr-14" vertex="1">
          <mxGeometry x="657" y="2292" width="493" height="48" as="geometry" />
        </mxCell>
        <mxCell id="865_u717xGQPADI79aA--24" value="&lt;div style=&quot;&quot;&gt;&lt;span style=&quot;font-size: 30px;&quot;&gt;摘要&lt;/span&gt;&lt;/div&gt;" style="rounded=0;whiteSpace=wrap;html=1;align=left;fillColor=#CCCCCC;" parent="cFaB45KztUIKXS-_cTrr-14" vertex="1">
          <mxGeometry x="369" y="2755" width="220" height="48" as="geometry" />
        </mxCell>
        <mxCell id="865_u717xGQPADI79aA--25" value="&lt;div style=&quot;&quot;&gt;&lt;span style=&quot;background-color: initial;&quot;&gt;&lt;font style=&quot;font-size: 30px;&quot;&gt;*摘要&lt;/font&gt;&lt;/span&gt;&lt;/div&gt;" style="rounded=0;whiteSpace=wrap;html=1;align=right;dashed=1;dashPattern=8 8;verticalAlign=bottom;" parent="cFaB45KztUIKXS-_cTrr-14" vertex="1">
          <mxGeometry x="70" y="2756" width="230" height="48" as="geometry" />
        </mxCell>
        <mxCell id="865_u717xGQPADI79aA--26" value="&lt;div style=&quot;&quot;&gt;&lt;font style=&quot;font-size: 30px;&quot;&gt;▼&amp;nbsp;&lt;/font&gt;&lt;font style=&quot;font-size: 30px;&quot;&gt;振込明細書に係る…&lt;/font&gt;&lt;/div&gt;" style="rounded=0;whiteSpace=wrap;html=1;align=left;fillColor=#CCCCCC;" parent="cFaB45KztUIKXS-_cTrr-14" vertex="1">
          <mxGeometry x="368" y="3143" width="347" height="48" as="geometry" />
        </mxCell>
        <mxCell id="865_u717xGQPADI79aA--27" value="&lt;font style=&quot;font-size: 84px;&quot;&gt;○&lt;/font&gt;" style="text;html=1;strokeColor=none;fillColor=none;align=center;verticalAlign=middle;whiteSpace=wrap;rounded=0;fontSize=60;" parent="cFaB45KztUIKXS-_cTrr-14" vertex="1">
          <mxGeometry x="370" y="2357" width="60" height="30" as="geometry" />
        </mxCell>
        <mxCell id="865_u717xGQPADI79aA--28" value="&lt;font style=&quot;font-size: 48px;&quot;&gt;●&lt;/font&gt;" style="text;html=1;strokeColor=none;fillColor=none;align=center;verticalAlign=middle;whiteSpace=wrap;rounded=0;fontSize=48;" parent="cFaB45KztUIKXS-_cTrr-14" vertex="1">
          <mxGeometry x="370" y="2359" width="60" height="30" as="geometry" />
        </mxCell>
        <mxCell id="865_u717xGQPADI79aA--29" value="&lt;font style=&quot;font-size: 30px;&quot;&gt;報告対象&lt;/font&gt;" style="text;html=1;strokeColor=none;fillColor=none;align=left;verticalAlign=middle;whiteSpace=wrap;rounded=0;" parent="cFaB45KztUIKXS-_cTrr-14" vertex="1">
          <mxGeometry x="425" y="2346" width="275" height="60" as="geometry" />
        </mxCell>
        <mxCell id="865_u717xGQPADI79aA--30" value="&lt;font style=&quot;font-size: 84px;&quot;&gt;○&lt;/font&gt;" style="text;html=1;strokeColor=none;fillColor=none;align=center;verticalAlign=middle;whiteSpace=wrap;rounded=0;fontSize=60;" parent="cFaB45KztUIKXS-_cTrr-14" vertex="1">
          <mxGeometry x="780" y="2357" width="60" height="30" as="geometry" />
        </mxCell>
        <mxCell id="865_u717xGQPADI79aA--31" value="&lt;font style=&quot;font-size: 30px;&quot;&gt;生活費(報告対象外)&lt;/font&gt;" style="text;html=1;strokeColor=none;fillColor=none;align=left;verticalAlign=middle;whiteSpace=wrap;rounded=0;" parent="cFaB45KztUIKXS-_cTrr-14" vertex="1">
          <mxGeometry x="832" y="2347" width="275" height="60" as="geometry" />
        </mxCell>
        <mxCell id="865_u717xGQPADI79aA--32" value="&lt;font style=&quot;font-size: 84px;&quot;&gt;○&lt;/font&gt;" style="text;html=1;strokeColor=none;fillColor=none;align=center;verticalAlign=middle;whiteSpace=wrap;rounded=0;fontSize=60;" parent="cFaB45KztUIKXS-_cTrr-14" vertex="1">
          <mxGeometry x="1093" y="2357" width="60" height="30" as="geometry" />
        </mxCell>
        <mxCell id="865_u717xGQPADI79aA--33" value="&lt;font style=&quot;font-size: 30px;&quot;&gt;政治活動報告対象外(廃止予定)&lt;/font&gt;" style="text;html=1;strokeColor=none;fillColor=none;align=left;verticalAlign=middle;whiteSpace=wrap;rounded=0;" parent="cFaB45KztUIKXS-_cTrr-14" vertex="1">
          <mxGeometry x="1149" y="2347" width="421" height="60" as="geometry" />
        </mxCell>
        <mxCell id="865_u717xGQPADI79aA--34" value="&lt;font style=&quot;font-size: 84px;&quot;&gt;○&lt;/font&gt;" style="text;html=1;strokeColor=none;fillColor=none;align=center;verticalAlign=middle;whiteSpace=wrap;rounded=0;fontSize=60;" parent="cFaB45KztUIKXS-_cTrr-14" vertex="1">
          <mxGeometry x="560" y="2357" width="60" height="30" as="geometry" />
        </mxCell>
        <mxCell id="865_u717xGQPADI79aA--35" value="&lt;span style=&quot;font-size: 30px;&quot;&gt;タスク計上&lt;/span&gt;" style="text;html=1;strokeColor=none;fillColor=none;align=left;verticalAlign=middle;whiteSpace=wrap;rounded=0;" parent="cFaB45KztUIKXS-_cTrr-14" vertex="1">
          <mxGeometry x="616" y="2346" width="275" height="60" as="geometry" />
        </mxCell>
        <mxCell id="865_u717xGQPADI79aA--36" value="&lt;div style=&quot;&quot;&gt;&lt;div style=&quot;font-family: &amp;quot;MS GothIc&amp;quot;, Consolas, &amp;quot;Courier New&amp;quot;, monospace, Consolas, &amp;quot;Courier New&amp;quot;, monospace; line-height: 19px;&quot;&gt;&lt;span style=&quot;font-size: 30px; background-color: rgb(204, 204, 204);&quot;&gt;パーティ1&lt;/span&gt;&lt;/div&gt;&lt;/div&gt;" style="rounded=0;whiteSpace=wrap;html=1;align=left;fillColor=#CCCCCC;" parent="cFaB45KztUIKXS-_cTrr-14" vertex="1">
          <mxGeometry x="369" y="2620" width="220" height="48" as="geometry" />
        </mxCell>
        <mxCell id="865_u717xGQPADI79aA--37" value="&lt;div style=&quot;font-size: 30px;&quot;&gt;&lt;span style=&quot;background-color: initial;&quot;&gt;&lt;font style=&quot;font-size: 30px;&quot;&gt;*小分類&lt;/font&gt;&lt;/span&gt;&lt;/div&gt;" style="rounded=0;whiteSpace=wrap;html=1;align=right;dashed=1;dashPattern=8 8;verticalAlign=bottom;" parent="cFaB45KztUIKXS-_cTrr-14" vertex="1">
          <mxGeometry x="70" y="2623" width="230" height="48" as="geometry" />
        </mxCell>
        <mxCell id="865_u717xGQPADI79aA--38" value="&lt;span style=&quot;font-size: 30px;&quot;&gt;報告除外で処理されていますが、××という条文上の理由で報告するのが適当と思われます。&lt;/span&gt;" style="rounded=0;whiteSpace=wrap;html=1;align=left;verticalAlign=top;fillColor=#CCCCCC;" parent="cFaB45KztUIKXS-_cTrr-14" vertex="1">
          <mxGeometry x="352" y="3228" width="748" height="144" as="geometry" />
        </mxCell>
        <mxCell id="865_u717xGQPADI79aA--39" value="&lt;font style=&quot;font-size: 30px;&quot;&gt;*意見付記&lt;/font&gt;" style="rounded=0;whiteSpace=wrap;html=1;align=right;dashed=1;dashPattern=8 8;verticalAlign=bottom;" parent="cFaB45KztUIKXS-_cTrr-14" vertex="1">
          <mxGeometry x="71" y="3228" width="230" height="46" as="geometry" />
        </mxCell>
        <mxCell id="rHHAAGl2NTk4dfVP8EHE-0" value="&lt;div style=&quot;&quot;&gt;&lt;span style=&quot;background-color: initial;&quot;&gt;&lt;font style=&quot;font-size: 30px;&quot;&gt;357854&lt;/font&gt;&lt;/span&gt;&lt;/div&gt;" style="rounded=0;whiteSpace=wrap;html=1;align=left;fillColor=#CCCCCC;" vertex="1" parent="cFaB45KztUIKXS-_cTrr-14">
          <mxGeometry x="429" y="96" width="220" height="48" as="geometry" />
        </mxCell>
        <mxCell id="rHHAAGl2NTk4dfVP8EHE-1" value="&lt;div style=&quot;&quot;&gt;&lt;span style=&quot;background-color: initial;&quot;&gt;&lt;font style=&quot;font-size: 30px;&quot;&gt;収入項目&lt;/font&gt;&lt;/span&gt;&lt;/div&gt;" style="rounded=0;whiteSpace=wrap;html=1;align=right;dashed=1;dashPattern=8 8;verticalAlign=bottom;" vertex="1" parent="cFaB45KztUIKXS-_cTrr-14">
          <mxGeometry x="130" y="93" width="230" height="48" as="geometry" />
        </mxCell>
        <mxCell id="rHHAAGl2NTk4dfVP8EHE-2" value="&lt;span style=&quot;font-size: 30px;&quot;&gt;寄付　政治団体　三郎&lt;/span&gt;" style="rounded=0;whiteSpace=wrap;html=1;align=left;fillColor=#CCCCCC;" vertex="1" parent="cFaB45KztUIKXS-_cTrr-14">
          <mxGeometry x="699" y="96" width="521" height="48" as="geometry" />
        </mxCell>
        <mxCell id="rHHAAGl2NTk4dfVP8EHE-3" value="&lt;span style=&quot;font-size: 30px; text-align: right;&quot;&gt;検索して指定&lt;/span&gt;" style="rounded=1;whiteSpace=wrap;html=1;" vertex="1" parent="cFaB45KztUIKXS-_cTrr-14">
          <mxGeometry x="1280" y="90" width="220" height="60" as="geometry" />
        </mxCell>
      </root>
    </mxGraphModel>
  </diagram>
</mxfile>
